<svg id="Layer_1" data-name="Layer 1" xmlns="http://www.w3.org/2000/svg" viewBox="0 0 148.38 37.45"><defs><style>.cls-1{fill:#ef5124;}</style></defs><path d="M51.61,290a24,24,0,0,1-1,8.67c-2,5.78-7.93,8.53-13.12,6a35.52,35.52,0,0,1-2.94-2c-.1.07-.19.09-.2.13A3.19,3.19,0,0,1,30.88,305a20.11,20.11,0,0,1-2.33-.15,1.9,1.9,0,0,1-1.58-1.3,5,5,0,0,1-.28-1.91q0-14.66,0-29.29c0-2.48.79-3.28,3.25-3.29.85,0,1.7,0,2.54,0,2,.09,2.88,1,2.91,3,0,2.44,0,4.88,0,7.32a2.19,2.19,0,0,0,.11,1,2,2,0,0,0,1.07-.5,9.25,9.25,0,0,1,14,5.15,21,21,0,0,1,1,4.95m-10.1-3.35a3.85,3.85,0,0,0-5.42-.53,1.45,1.45,0,0,0-.69,1.29c0,3.06,0,6.11,0,9.17a1,1,0,0,0,.34,1c1.75,1.27,4.5,1.53,5.92-.92a8.37,8.37,0,0,0,1-3.54C42.81,290.89,42.83,288.71,41.51,286.64Z" transform="translate(-26.69 -268.4)"/><path d="M129.38,289c1.56-.36,3.05-.68,4.54-1.05.6-.15,1.47.08,1.55-.95a2.2,2.2,0,0,0-1.5-2.27,4.93,4.93,0,0,0-3.87.36,6.43,6.43,0,0,0-1.21.82,1.93,1.93,0,0,1-2.43.26,23.14,23.14,0,0,1-2.75-1.67c-1.39-1-1.37-2.36,0-3.5a11.3,11.3,0,0,1,5.17-2.41,20.94,20.94,0,0,1,7.57-.13c4.7.81,7.2,3.87,7.4,8.65.14,3.36-.05,6.7,0,10.05a38.7,38.7,0,0,0,.33,4.57,6.3,6.3,0,0,1,0,1c0,1.38-.5,2-1.88,2.11a42,42,0,0,1-4.49,0,2.47,2.47,0,0,1-2.39-2.19c-.55,0-.87.37-1.24.6a12.84,12.84,0,0,1-6.13,2c-5.07.32-7.78-3.45-7.34-8.22.33-3.53,2.52-5.59,5.55-6.94,1-.43,2-.72,3.11-1.11m2.2,9.88a3.44,3.44,0,0,0,1.79-.37c.66-.33,1.55-.58,1.64-1.38a19,19,0,0,0,0-4.26,7.9,7.9,0,0,0-4.49,1.54,2.74,2.74,0,0,0-.79,3A1.83,1.83,0,0,0,131.58,298.89Z" transform="translate(-26.69 -268.4)"/><path class="cls-1" d="M71,305.79c-4,.13-8,.18-11.76-1.12-2.84-1-5.17-2.59-6.3-5.55a7.94,7.94,0,0,1,.12-5.62c1.38-3.86,4-6.77,7-9.47.45-.42.91-.83,1.37-1.24a1.35,1.35,0,0,0,.12-.29c-.47-.18-1-.33-1.42-.55-3-1.42-5.25-3.44-5.79-6.93a1.38,1.38,0,0,1,1.07-1.76c3.69-1.25,8.74-.15,11.06,3.39.3.46.47,1.11,1.2,1.17a1.55,1.55,0,0,0,1.7-.8c2.16-3.72,7.39-4.94,10.5-3.85,1.43.5,1.84,1.22,1.47,2.69-.8,3.06-2.95,4.88-5.7,6.13-.41.19-.84.33-1.3.52.08.49.5.68.8.93a28,28,0,0,1,6.63,7.48,11.07,11.07,0,0,1,1.78,5.41A7.83,7.83,0,0,1,80,303.1a16.31,16.31,0,0,1-7.6,2.53l-1.35.16M57.28,291.27c-.35.66-.75,1.3-1.05,2-1.33,3.05-.53,5.66,2.25,7.41a11.2,11.2,0,0,0,4.59,1.53,33.65,33.65,0,0,0,7.77.24,19.74,19.74,0,0,0,5.33-1c2.8-1.06,4.43-3.25,4.26-5.77a7.69,7.69,0,0,0-.94-3.06,23.37,23.37,0,0,0-8.52-8.8c-.12-.07-.26-.23-.43,0a1.85,1.85,0,0,0,.39.88c.87,1.5,1.74,3,2.58,4.49.38.67.92,1.48,0,2s-1.39-.3-1.79-.89c-.92-1.38-1.73-2.83-2.62-4.23A5.46,5.46,0,0,0,68,284.41a1.9,1.9,0,0,0-.75.93c-.88,1.48-1.74,3-2.63,4.45a3,3,0,0,1-1.25,1.33c-.78.34-1.37-.05-1.33-.9a2.4,2.4,0,0,1,.4-1.09c.54-.93,1.11-1.84,1.61-2.79a13.91,13.91,0,0,0,1.38-2.69c-2.18.71-5.88,4.17-8.16,7.62m7.22-13c-1.41-1.82-5.06-2.65-6.74-1.92.5,2.58,5.38,4.55,7.34,3a2.89,2.89,0,0,0-.6-1m9.6-1.64A4.79,4.79,0,0,0,71,279.54c2.75,1.14,7.14-1,7.09-3.33a7.73,7.73,0,0,0-4,.44m-5.66,4.41c-.32-.19-.65-.37-.89.08-.11.23.08.36.27.42C68.2,281.69,68.53,281.7,68.44,281.06Z" transform="translate(-26.69 -268.4)"/><path d="M87.29,300.24a30.29,30.29,0,0,1-.36-5.42V287.2c0-1.68,0-1.68-1.62-1.92s-2.15-.83-2.17-2.54v-1.17c0-2.07.58-2.75,2.62-2.77,1,0,1.19-.39,1.18-1.28a38.79,38.79,0,0,1,.08-5.17c.19-1.43.71-2,2.14-2.24a14.26,14.26,0,0,1,4.47,0,2.07,2.07,0,0,1,1.94,2,31,31,0,0,1,.13,5.45c0,1,.32,1.28,1.24,1.2a6.73,6.73,0,0,1,2.23.16,1.76,1.76,0,0,1,1.47,1.81c0,.84,0,1.69,0,2.53a1.81,1.81,0,0,1-1.52,1.88,9.34,9.34,0,0,1-2.53.15c-.61,0-.88.21-.88.85,0,3.38,0,6.77,0,10.15a1.86,1.86,0,0,0,1.74,2l.19,0c1,.21,2.16,0,2.66,1.11a6.89,6.89,0,0,1,.17,4.12c-.17.91-1.07,1.3-1.93,1.44a18.9,18.9,0,0,1-6.79,0C89.25,304.51,87.82,302.83,87.29,300.24Z" transform="translate(-26.69 -268.4)"/><path d="M105,278.74c.58-.22.42-.66.43-1,0-1.66,0-3.32,0-5a2.32,2.32,0,0,1,2.37-2.66,20.78,20.78,0,0,1,3.7,0c1.84.14,2.55.95,2.62,2.86,0,1.5,0,3,0,4.49s0,1.37,1.31,1.37c3.29,0,3.82.55,3.73,3.81-.06,2-.71,2.63-2.65,2.73h-.19c-2.2.06-2.21.06-2.21,2.24q0,4.14,0,8.3a2.15,2.15,0,0,0,2.11,2.52c.29.05.58.07.87.11a1.9,1.9,0,0,1,1.93,1.83,9.89,9.89,0,0,1,.12,1.45c0,2.33-.54,3.08-2.84,3.37a18.23,18.23,0,0,1-6.12-.12,5.43,5.43,0,0,1-4.35-4.26,14.79,14.79,0,0,1-.44-3.57c0-3.59,0-7.17,0-10.75,0-.83-.24-1.13-1.1-1.15-2.15,0-2.78-.73-2.8-2.85v-.2C101.52,279.31,102,278.85,105,278.74Z" transform="translate(-26.69 -268.4)"/><path d="M148.23,284.88a31.19,31.19,0,0,1,.1-3.9,2.25,2.25,0,0,1,2.34-2.16,21.74,21.74,0,0,1,3,0,2.28,2.28,0,0,1,2.3,2c.12.47,0,1,.34,1.49a22.19,22.19,0,0,1,2-2.39,6.78,6.78,0,0,1,3.75-1.71c1.15-.15,1.71.25,1.78,1.39.08,1.52.06,3.06,0,4.58a1.77,1.77,0,0,1-1.7,1.79,7.34,7.34,0,0,0-4.72,2.87,2.55,2.55,0,0,0-.54,1.62q0,5.76,0,11.51c0,2.09-.79,2.89-2.89,2.91-1.07,0-2.14,0-3.21,0a2.21,2.21,0,0,1-2.45-2.23,11.35,11.35,0,0,1-.12-1.65C148.22,295.64,148.23,290.31,148.23,284.88Z" transform="translate(-26.69 -268.4)"/><path d="M166.35,281.24c.35-1.72.75-2.22,2.21-2.38a15.92,15.92,0,0,1,4.57.07,2.06,2.06,0,0,1,1.74,1.73,7.85,7.85,0,0,1,.18,1.74v19a6.27,6.27,0,0,1-.15,1.55,2.14,2.14,0,0,1-2.26,1.87c-1.17,0-2.34,0-3.52,0-1.92,0-2.76-.89-2.77-2.85,0-2.57,0-5.14,0-7.71C166.34,290,166.35,285.66,166.35,281.24Z" transform="translate(-26.69 -268.4)"/><path d="M167.85,275.72l-.25-.1c-1.48-.64-1.48-3.19-1.09-5.39.23-1.29,1.2-1.81,3-1.8a16.88,16.88,0,0,1,3.69.15,2.1,2.1,0,0,1,1.72,1.77,9.31,9.31,0,0,1,.05,3.49,2.12,2.12,0,0,1-2.14,2A17.13,17.13,0,0,1,167.85,275.72Z" transform="translate(-26.69 -268.4)"/></svg>